<?xml version="1.0" encoding="UTF-8"?>
<!DOCTYPE svg PUBLIC "-//W3C//DTD SVG 1.1//EN" "http://www.w3.org/Graphics/SVG/1.1/DTD/svg11.dtd">
<!-- Creator: CorelDRAW X7 -->
<svg xmlns="http://www.w3.org/2000/svg" xml:space="preserve" width="228px" height="100px" version="1.1" style="shape-rendering:geometricPrecision; text-rendering:geometricPrecision; image-rendering:optimizeQuality; fill-rule:evenodd; clip-rule:evenodd"
viewBox="0 0 228000 100000"
 xmlns:xlink="http://www.w3.org/1999/xlink">
 <defs>
  <style type="text/css">
   <![CDATA[
    .fil0 {fill:black}
    .fil1 {fill:black}
    .fil2 {fill:#95908C}
    .fil3 {fill:white}
   ]]>
  </style>
 </defs>
 <g id="Capa_x0020_1">
  <metadata id="CorelCorpID_0Corel-Layer"/>
  <g id="_364044936">
   <path class="fil0" d="M91610 82657c-6057,5627 -12789,9945 -20200,12905 -7409,2961 -15182,4439 -23293,4439 -6233,0 -11970,-944 -17214,-2813 -5263,-1867 -9961,-4632 -14096,-8273 -749,-654 -1473,-1324 -2169,-2007l10605 0 7 -626c-603,-918 -1184,-1841 -1740,-2769l-7222 0 -6671 -2368c-552,-747 -1078,-1507 -1578,-2281l12398 0 10 -1004c-386,-793 -754,-1590 -1106,-2390l-7861 0 -6594 -2342c-182,-396 -358,-794 -528,-1195 -231,-546 -453,-1099 -665,-1659l12930 0 22 -2052c-137,-447 -268,-894 -394,-1343l-8583 0 -5673 -2013c-169,-669 -325,-1344 -470,-2028l13724 0c-238,-1128 -445,-2260 -620,-3396l-8090 0 -5892 -2091c-94,-851 -172,-1715 -234,-2587l13682 0c-85,-1130 -137,-2261 -158,-3395l-8589 0 -5100 -1811c7,-1196 54,-2384 139,-3565l13685 0c79,-1130 189,-2262 331,-3395l-7542 0 -5789 -2055c197,-1094 428,-2180 694,-3259l13535 0c240,-1131 512,-2263 815,-3395l-7676 0 -5101 -1810c322,-896 670,-1787 1043,-2673 107,-257 218,-515 329,-769l0 244 12958 0c400,-1133 828,-2265 1291,-3396l-5370 0 -6162 -2188c560,-956 1149,-1886 1767,-2789l12015 0c561,-1134 1154,-2266 1782,-3396l-7139 0 -3149 -1117c1024,-1163 2106,-2270 3245,-3326 4314,-3980 9216,-6989 14684,-9026 5491,-2037 11388,-3056 17758,-3056 8111,0 15180,1746 21212,5216 6032,3494 11249,8879 15657,16181l-11228 8879c-2688,-6162 -5987,-10797 -9871,-13876 -3889,-3083 -8316,-4611 -13308,-4611 -7637,0 -13556,3301 -17756,9923 -4181,6598 -6285,15938 -6285,28020 0,10989 2375,19917 7098,26759 4721,6839 10842,10261 18412,10261 2824,0 5466,-462 7928,-1383 2486,-922 4879,-2305 7229,-4148l0 -19556 -12594 0 0 -6934 36725 0 0 27339z"/>
   <path class="fil0" d="M167052 55775l21548 0 -11297 -34621 -10251 34621zm-24869 40832l29973 -96608 23618 0 3886 11738 -1441 702 -11773 -3 1254 3789 13446 0 978 2957 -3583 1751 -9284 -2 1254 3787 13446 0 835 2524 -4473 2184 -8250 -2 1253 3788 13446 0 1154 3484 -4245 2073 -8516 -2 1254 3787 13445 0 656 1981 -3601 1758 -9264 -3 1255 3788 13445 0 1014 3064 -4610 2251 -8092 -2 1254 3788 13446 0 606 1830 -4280 2090 -8475 -3 1253 3789 13446 0 831 2507 -3393 1656 -9505 -3 1253 3789 13446 0 1017 3071 -4037 1971 -8757 -2 1253 3788 13446 0 4285 12945 -25983 0 -9201 -28554 -29305 0 -8667 28554 -12413 0z"/>
   <path class="fil1" d="M123906 12894c984,301 1470,787 1713,1790 6805,298 13438,271 20172,-33 1456,-67 3055,-313 4375,-970 486,-242 452,1160 0,1454 -2450,1598 -15534,1940 -28192,1940 -12659,0 -25744,-342 -28194,-1940 -452,-294 -485,-1696 0,-1454 1320,657 2919,903 4375,970 6734,304 13367,331 20173,33 243,-1003 728,-1489 1712,-1790l398 -2040 -5999 -83 0 -606 6274 -720 1261 -6460 1262 6471 5785 709 0 606 -5513 82 398 2041z"/>
   <path class="fil2" d="M121767 19015c13125,22307 -9235,45099 -22371,55284 14743,0 29488,0 44232,0 -1227,-22018 -2566,-43969 -21861,-55284z"/>
   <path class="fil0" d="M96693 80604c483,-405 964,-809 1446,-1213 721,970 1925,2667 2889,2667 964,0 1684,-3151 3371,-3151 1685,0 4093,3151 6501,2909 2408,-242 2581,-3395 4575,-3395 1994,0 3853,3395 5298,3395 1444,0 2767,-3003 4815,-2909 2049,93 4094,3393 5779,3393 1686,0 2890,-3151 4335,-3393 1444,-242 2408,727 3612,727 1203,0 2598,-1254 3611,-2182 482,485 963,969 1445,1455 -1445,1212 -3307,2363 -4817,2667 -1508,303 -2648,-1213 -3611,-970 -963,242 -2489,3588 -4575,3637 -2086,48 -3853,-3395 -5779,-3395 -1926,0 -2869,3005 -4815,2909 -1947,-94 -3350,-3413 -5057,-3394 -1708,19 -2167,3152 -4575,3394 -2409,244 -5057,-2909 -6501,-2909 -1445,0 -2168,2909 -3612,2909 -1445,0 -3371,-1939 -4335,-3151zm-4333 12487c482,-404 962,-808 1444,-1213 723,971 1927,2668 2889,2668 964,0 1686,-3153 3371,-3153 1687,0 4094,3153 6502,2911 2407,-244 2582,-3396 4575,-3396 1993,0 3852,3396 5297,3396 1444,0 2767,-3004 4816,-2911 2048,94 4093,3395 5778,3395 1687,0 2891,-3152 4335,-3395 1445,-242 2408,728 3612,728 1204,0 2598,-1254 3612,-2183 482,486 962,970 1445,1455 -1445,1212 -3308,2364 -4816,2667 -1510,304 -2649,-1211 -3612,-969 -963,242 -2490,3588 -4576,3636 -2084,50 -3851,-3394 -5778,-3394 -1926,0 -2870,3005 -4816,2910 -1945,-96 -3349,-3413 -5057,-3394 -1707,18 -2166,3151 -4574,3394 -2408,242 -5056,-2910 -6501,-2910 -1446,0 -2167,2910 -3613,2910 -1444,0 -3371,-1939 -4333,-3152zm2167 -6304c482,-405 963,-809 1444,-1213 722,970 1927,2667 2889,2667 964,0 1686,-3151 3371,-3151 1687,0 4094,3151 6501,2909 2409,-242 2582,-3395 4576,-3395 1994,0 3853,3395 5297,3395 1445,0 2768,-3002 4817,-2909 2048,93 4092,3393 5778,3393 1686,0 2890,-3151 4334,-3393 1445,-242 2409,727 3612,727 1204,0 2599,-1254 3612,-2182 482,485 963,969 1445,1455 -1445,1212 -3307,2363 -4816,2667 -1509,303 -2649,-1213 -3612,-970 -963,242 -2489,3588 -4575,3637 -2086,48 -3852,-3395 -5778,-3395 -1927,0 -2870,3005 -4817,2909 -1945,-94 -3348,-3413 -5056,-3394 -1708,19 -2168,3152 -4576,3394 -2407,244 -5055,-2909 -6501,-2909 -1444,0 -2166,2909 -3612,2909 -1444,0 -3370,-1939 -4333,-3151z"/>
   <path class="fil3" d="M130760 33806c-405,242 -810,485 -1215,727 779,1456 1237,3241 1458,5334 486,-80 972,-160 1458,-242 -72,-2465 -682,-4360 -1701,-5819zm-6806 35644c487,323 1091,424 1622,670 2317,-4233 4241,-8576 6156,-13521 -373,-172 -1040,-337 -1459,-485 -1575,4391 -3367,8634 -6319,13336zm7183 -16470c567,82 1020,23 1587,103 364,-2975 456,-5449 467,-9336 -568,0 -1135,0 -1702,0 121,3143 -86,6094 -352,9233z"/>
  </g>
 </g>
</svg>
